<svg width="16" height="15" viewBox="0 0 16 15" fill="none" xmlns="http://www.w3.org/2000/svg">
<path d="M15.6413 11.8643L13.1704 9.54225C12.6782 9.08166 11.8632 9.09565 11.3538 9.57439L10.109 10.7438C10.0303 10.7031 9.94891 10.6606 9.86332 10.6154C9.07719 10.2062 8.00124 9.64518 6.86903 8.58055C5.73347 7.51367 5.1359 6.50113 4.69898 5.76199C4.65288 5.68369 4.6087 5.60819 4.56508 5.53649L5.40057 4.75261L5.81133 4.36617C6.32143 3.88674 6.3355 3.12113 5.84448 2.6592L3.37353 0.336912C2.88251 -0.124374 2.0671 -0.11038 1.55701 0.369047L0.860608 1.02716L0.879638 1.04491C0.646127 1.32488 0.450997 1.64778 0.305788 1.99599C0.171932 2.32744 0.0885942 2.64373 0.0504876 2.96067C-0.275785 5.50224 0.960265 7.82504 4.31474 10.977C8.95165 15.3337 12.6884 15.0046 12.8496 14.9885C13.2007 14.9491 13.5372 14.8702 13.8791 14.7455C14.2465 14.6106 14.5899 14.4275 14.8877 14.2086L14.9029 14.2213L15.6084 13.5722C16.1174 13.0928 16.1321 12.3269 15.6413 11.8643Z" fill="#D7569C"/>
</svg>
