<svg width="20" height="20" viewBox="0 0 20 20" fill="none" xmlns="http://www.w3.org/2000/svg">
<path d="M18.8949 0H1.10383C0.494616 0 0 0.493628 0 1.10383V18.8949C0 19.5051 0.494616 19.9993 1.10383 19.9993H10.682V12.2544H8.07588V9.23568H10.682V7.00958C10.682 4.42685 12.259 3.01972 14.5635 3.01972C15.6683 3.01972 16.6157 3.10238 16.892 3.13827V5.83792L15.2936 5.83857C14.0406 5.83857 13.7989 6.43429 13.7989 7.30793V9.2347H16.7883L16.3974 12.2531H13.7985V19.9984H18.8945C19.5044 19.9984 19.9994 19.5034 19.9994 18.8949V1.10317C19.999 0.493628 19.5047 0 18.8949 0Z" fill="#D7569C"/>
</svg>
