<svg width="10" height="16" viewBox="0 0 10 16" fill="none" xmlns="http://www.w3.org/2000/svg">
<path d="M5 0C2.24305 0 0 2.39259 0 5.33334C0 6.21616 0.206923 7.09147 0.600292 7.86784L4.72657 15.8281C4.7815 15.9342 4.88618 16 5 16C5.11382 16 5.2185 15.9342 5.27343 15.8281L9.40123 7.86522C9.79308 7.09147 10 6.21613 10 5.33331C10 2.39259 7.75695 0 5 0ZM5 8C3.62153 8 2.50001 6.80372 2.50001 5.33334C2.50001 3.86297 3.62153 2.66669 5 2.66669C6.37847 2.66669 7.49999 3.86297 7.49999 5.33334C7.49999 6.80372 6.37847 8 5 8Z" fill="#D7569C"/>
</svg>
