<svg width="20" height="20" viewBox="0 0 20 20" fill="none" xmlns="http://www.w3.org/2000/svg">
<path d="M18.9362 0H1.06383C0.47617 0 0 0.476383 0 1.06383V18.9362C0 19.5236 0.47617 20 1.06383 20H18.9362C19.5238 20 20 19.5236 20 18.9362V1.06383C20 0.476383 19.5238 0 18.9362 0ZM11.2791 13.6919C10.2506 13.6919 9.28362 13.1362 8.95277 12.5051C8.95277 12.5051 8.39957 14.6985 8.2834 15.1219C7.87106 16.6179 6.65851 18.1151 6.56468 18.2379C6.49851 18.323 6.35362 18.2964 6.33851 18.1832C6.31234 17.9926 6.00277 16.1047 6.36681 14.5651C6.54915 13.7917 7.59149 9.37702 7.59149 9.37702C7.59149 9.37702 7.28766 8.76915 7.28766 7.87021C7.28766 6.45936 8.10596 5.40574 9.12404 5.40574C9.99 5.40574 10.4081 6.05596 10.4081 6.83532C10.4081 7.70574 9.85383 9.00745 9.56787 10.2136C9.32894 11.224 10.0738 12.0477 11.07 12.0477C12.8738 12.0477 14.0885 9.73064 14.0885 6.98553C14.0885 4.89915 12.6843 3.33681 10.1277 3.33681C7.24021 3.33681 5.43957 5.49085 5.43957 7.89702C5.43957 8.72638 5.68468 9.31191 6.0683 9.76426C6.24404 9.97234 6.26894 10.056 6.20511 10.2949C6.15851 10.4704 6.05468 10.8917 6.01106 11.0587C5.94745 11.3002 5.75213 11.3866 5.53404 11.2972C4.20426 10.7543 3.58426 9.29766 3.58426 7.66C3.58426 4.95553 5.86532 1.71213 10.3889 1.71213C14.0243 1.71213 16.4166 4.34234 16.4166 7.16638C16.4162 10.9013 14.3394 13.6919 11.2791 13.6919Z" fill="#D7569C"/>
</svg>
